<?xml version="1.0" encoding="UTF-8" standalone="no"?>
<svg
   xmlns:dc="http://purl.org/dc/elements/1.1/"
   xmlns:cc="http://creativecommons.org/ns#"
   xmlns:rdf="http://www.w3.org/1999/02/22-rdf-syntax-ns#"
   xmlns:svg="http://www.w3.org/2000/svg"
   xmlns="http://www.w3.org/2000/svg"
   xmlns:sodipodi="http://sodipodi.sourceforge.net/DTD/sodipodi-0.dtd"
   xmlns:inkscape="http://www.inkscape.org/namespaces/inkscape"
   width="128.0px"
   height="128.0px"
   viewBox="0 0 128.0 128.0"
   version="1.1"
   id="SVGRoot"
   sodipodi:docname="hotwire.svg"
   inkscape:version="1.0.2 (e86c870879, 2021-01-15)">
  <defs
     id="defs833" />
  <sodipodi:namedview
     id="base"
     pagecolor="#ffffff"
     bordercolor="#666666"
     borderopacity="1.0"
     inkscape:pageopacity="0.0"
     inkscape:pageshadow="2"
     inkscape:zoom="5.6568544"
     inkscape:cx="96.818063"
     inkscape:cy="68.758589"
     inkscape:document-units="px"
     inkscape:current-layer="layer1"
     inkscape:document-rotation="0"
     showgrid="true"
     inkscape:window-width="1920"
     inkscape:window-height="1056"
     inkscape:window-x="0"
     inkscape:window-y="0"
     inkscape:window-maximized="1">
    <inkscape:grid
       type="xygrid"
       id="grid1403" />
  </sodipodi:namedview>
  <metadata
     id="metadata836">
    <rdf:RDF>
      <cc:Work
         rdf:about="">
        <dc:format>image/svg+xml</dc:format>
        <dc:type
           rdf:resource="http://purl.org/dc/dcmitype/StillImage" />
        <dc:title />
      </cc:Work>
    </rdf:RDF>
  </metadata>
  <g
     inkscape:label="Layer 1"
     inkscape:groupmode="layer"
     id="layer1">
    <path
       id="rect850"
       style="fill:#4b6983;fill-opacity:1;stroke:#000000;stroke-width:1.51559;stroke-linecap:round;stroke-linejoin:round"
       d="m 101.66511,63.461336 2.44458,11.748362 C 100,90 75.361901,100.80107 65,105 57,101 51.666667,81.666667 45,70 58.144986,68.92546 92.902058,56.00968 101.66511,63.461336 Z"
       sodipodi:nodetypes="ccccc" />
    <path
       id="rect840"
       style="fill:#fffffa;fill-opacity:1;stroke:#000000;stroke-width:1.51559;stroke-linecap:round;stroke-linejoin:round;stroke-miterlimit:4;stroke-dasharray:none;stroke-opacity:1"
       transform="rotate(-20.796572)"
       d="m -10.13393,99.911478 47.169134,0.674242 -7.101023,17.75254 -47.169132,0.27016 z"
       sodipodi:nodetypes="ccccc" />
    <path
       id="rect843"
       style="fill:#fffffa;fill-opacity:1;stroke:#000000;stroke-width:1.51559;stroke-linecap:round;stroke-linejoin:round;stroke-miterlimit:4;stroke-dasharray:none;stroke-opacity:1"
       d="m 6,92 20,5 v 20 L 6,112 Z"
       sodipodi:nodetypes="ccccc" />
    <ellipse
       style="fill:#314e6c;stroke:none;stroke-width:1.51559;stroke-linecap:round;stroke-linejoin:round;fill-opacity:1"
       id="path848"
       cx="59.5"
       cy="76"
       rx="11.5"
       ry="7" />
    <path
       id="rect846"
       style="fill:#fffffa;fill-opacity:1;stroke:#000000;stroke-width:1.51559;stroke-linecap:round;stroke-linejoin:round;stroke-miterlimit:4;stroke-dasharray:none;stroke-opacity:1"
       d="M 6,92 45,75 70,80 26,97 Z"
       sodipodi:nodetypes="ccccc" />
    <path
       id="path862"
       style="fill:#4b6983;fill-opacity:1;stroke:#000000;stroke-width:1px;stroke-linecap:butt;stroke-linejoin:miter;stroke-opacity:1"
       d="M 0,20 V 35.5 C 22.80793,25.236727 45.805257,23.347552 72.799959,23.347552 c 10,0 29.806861,0.982287 42.200041,21.652448 4.37106,7.290344 -7.40057,11.200285 -15,15 l -1,0.5 5,15 1,-0.5 C 133.99811,56.97179 127.70929,45.03472 120,35 101.30306,10.663299 57.203605,9.264811 0,20"
       sodipodi:nodetypes="ccsssccssc" />
    <path
       id="rect849"
       style="fill:#fffffa;fill-opacity:1;stroke:#000000;stroke-width:1.51559;stroke-linecap:round;stroke-linejoin:round;stroke-miterlimit:4;stroke-dasharray:none;stroke-opacity:1"
       d="M 43.275864,69.310346 54,71 25,94 14,91 Z"
       sodipodi:nodetypes="ccccc" />
    <path
       style="fill:#4b6983;fill-opacity:1;stroke:#000000;stroke-width:1px;stroke-linecap:butt;stroke-linejoin:miter;stroke-opacity:1"
       d="M 61.982021,64.964783 C 54,61 29,50 30,67 c 1.501055,5.231258 12.104509,-1.862272 20,1 8.667571,3.142166 17,8 20.106794,11.696798 C 71,73 68.357908,68.131776 61.982021,64.964783 Z"
       id="path853"
       sodipodi:nodetypes="scscs" />
    <path
       style="fill:#eed680;fill-opacity:1;stroke:#000000;stroke-width:2.06156px;stroke-linecap:butt;stroke-linejoin:miter;stroke-opacity:1"
       d="M 115,57.678571 80,85 91.666666,94.107142 80,121.42857 115,94.107142 103.33334,85 Z"
       id="path852"
       sodipodi:nodetypes="ccccccc" />
  </g>
</svg>
